{
  "asset": {
    "version": "2.0",
    "generator": "THREE.GLTFExporter"
  },
  "scenes": [
    {
      "name": "AuxScene",
      "nodes": [
        1
      ]
    }
  ],
  "scene": 0,
  "nodes": [
    {
      "name": "object_0",
      "mesh": 0
    },
    {
      "children": [
        0
      ]
    }
  ],
  "bufferViews": [
    {
      "buffer": 0,
      "byteOffset": 0,
      "byteLength": 192528,
      "target": 34962,
      "byteStride": 12
    },
    {
      "buffer": 0,
      "byteOffset": 192528,
      "byteLength": 192528,
      "target": 34962,
      "byteStride": 12
    },
    {
      "buffer": 0,
      "byteOffset": 385056,
      "byteLength": 128352,
      "target": 34962,
      "byteStride": 8
    }
  ],
  "buffers": [
    {
      "byteLength": 513408,
      "uri": "data:application/octet-stream;base64,"
    }
  ],
  "accessors": [
    {
      "bufferView": 0,
      "componentType": 5126,
      "count": 16044,
      "max": [
        1.7760225534439087,
        0.9599044919013977,
        1.0547949075698853
      ],
      "min": [
        -1.7758500576019287,
        -0.9335049986839294,
        -0.8908950090408325
      ],
      "type": "VEC3"
    },
    {
      "bufferView": 1,
      "componentType": 5126,
      "count": 16044,
      "max": [
        0.9999979734420776,
        0.9999979734420776,
        1
      ],
      "min": [
        -0.9999979734420776,
        -0.9999979734420776,
        -0.9999909996986389
      ],
      "type": "VEC3"
    },
    {
      "bufferView": 2,
      "componentType": 5126,
      "count": 16044,
      "max": [
        0.9980440139770508,
        0.9980440139770508
      ],
      "min": [
        0.0019529999699443579,
        0.0807339996099472
      ],
      "type": "VEC2"
    }
  ],
  "materials": [
    {
      "pbrMetallicRoughness": {
        "metallicFactor": 0.5,
        "roughnessFactor": 0.5
      },
      "name": "object_0"
    }
  ],
  "meshes": [
    {
      "primitives": [
        {
          "mode": 4,
          "attributes": {
            "POSITION": 0,
            "NORMAL": 1,
            "TEXCOORD_0": 2
          },
          "material": 0
        }
      ]
    }
  ]
}