{
  "asset": {
    "version": "2.0",
    "generator": "THREE.GLTFExporter"
  },
  "scenes": [
    {
      "nodes": [
        9
      ],
      "name": "AuxScene"
    }
  ],
  "scene": 0,
  "nodes": [
    {
      "mesh": 0
    },
    {
      "mesh": 1
    },
    {
      "mesh": 2
    },
    {
      "mesh": 3
    },
    {
      "mesh": 4
    },
    {
      "mesh": 5
    },
    {
      "mesh": 6
    },
    {
      "mesh": 7
    },
    {
      "mesh": 8
    },
    {
      "children": [
        0,
        1,
        2,
        3,
        4,
        5,
        6,
        7,
        8
      ]
    }
  ],
  "bufferViews": [
    {
      "buffer": 0,
      "byteOffset": 0,
      "byteLength": 53964,
      "target": 34962,
      "byteStride": 12
    },
    {
      "buffer": 0,
      "byteOffset": 53964,
      "byteLength": 53964,
      "target": 34962,
      "byteStride": 12
    },
    {
      "buffer": 0,
      "byteOffset": 107928,
      "byteLength": 35976,
      "target": 34962,
      "byteStride": 8
    },
    {
      "buffer": 0,
      "byteOffset": 143904,
      "byteLength": 8996,
      "target": 34963
    },
    {
      "buffer": 0,
      "byteOffset": 152900,
      "byteLength": 148104,
      "target": 34962,
      "byteStride": 12
    },
    {
      "buffer": 0,
      "byteOffset": 301004,
      "byteLength": 148104,
      "target": 34962,
      "byteStride": 12
    },
    {
      "buffer": 0,
      "byteOffset": 449108,
      "byteLength": 98736,
      "target": 34962,
      "byteStride": 8
    },
    {
      "buffer": 0,
      "byteOffset": 547844,
      "byteLength": 24684,
      "target": 34963
    },
    {
      "buffer": 0,
      "byteOffset": 572528,
      "byteLength": 68340,
      "target": 34962,
      "byteStride": 12
    },
    {
      "buffer": 0,
      "byteOffset": 640868,
      "byteLength": 68340,
      "target": 34962,
      "byteStride": 12
    },
    {
      "buffer": 0,
      "byteOffset": 709208,
      "byteLength": 45560,
      "target": 34962,
      "byteStride": 8
    },
    {
      "buffer": 0,
      "byteOffset": 754768,
      "byteLength": 11396,
      "target": 34963
    },
    {
      "buffer": 0,
      "byteOffset": 766164,
      "byteLength": 83088,
      "target": 34962,
      "byteStride": 12
    },
    {
      "buffer": 0,
      "byteOffset": 849252,
      "byteLength": 83088,
      "target": 34962,
      "byteStride": 12
    },
    {
      "buffer": 0,
      "byteOffset": 932340,
      "byteLength": 55392,
      "target": 34962,
      "byteStride": 8
    },
    {
      "buffer": 0,
      "byteOffset": 987732,
      "byteLength": 13848,
      "target": 34963
    },
    {
      "buffer": 0,
      "byteOffset": 1001580,
      "byteLength": 24624,
      "target": 34962,
      "byteStride": 12
    },
    {
      "buffer": 0,
      "byteOffset": 1026204,
      "byteLength": 24624,
      "target": 34962,
      "byteStride": 12
    },
    {
      "buffer": 0,
      "byteOffset": 1050828,
      "byteLength": 16416,
      "target": 34962,
      "byteStride": 8
    },
    {
      "buffer": 0,
      "byteOffset": 1067244,
      "byteLength": 4104,
      "target": 34963
    },
    {
      "buffer": 0,
      "byteOffset": 1071348,
      "byteLength": 1440,
      "target": 34962,
      "byteStride": 12
    },
    {
      "buffer": 0,
      "byteOffset": 1072788,
      "byteLength": 1440,
      "target": 34962,
      "byteStride": 12
    },
    {
      "buffer": 0,
      "byteOffset": 1074228,
      "byteLength": 960,
      "target": 34962,
      "byteStride": 8
    },
    {
      "buffer": 0,
      "byteOffset": 1075188,
      "byteLength": 120,
      "target": 34963
    },
    {
      "buffer": 0,
      "byteOffset": 1075308,
      "byteLength": 1440,
      "target": 34962,
      "byteStride": 12
    },
    {
      "buffer": 0,
      "byteOffset": 1076748,
      "byteLength": 1440,
      "target": 34962,
      "byteStride": 12
    },
    {
      "buffer": 0,
      "byteOffset": 1078188,
      "byteLength": 960,
      "target": 34962,
      "byteStride": 8
    },
    {
      "buffer": 0,
      "byteOffset": 1079148,
      "byteLength": 120,
      "target": 34963
    },
    {
      "buffer": 0,
      "byteOffset": 1079268,
      "byteLength": 2904,
      "target": 34962,
      "byteStride": 12
    },
    {
      "buffer": 0,
      "byteOffset": 1082172,
      "byteLength": 2904,
      "target": 34962,
      "byteStride": 12
    },
    {
      "buffer": 0,
      "byteOffset": 1085076,
      "byteLength": 1936,
      "target": 34962,
      "byteStride": 8
    },
    {
      "buffer": 0,
      "byteOffset": 1087012,
      "byteLength": 1344,
      "target": 34963
    },
    {
      "buffer": 0,
      "byteOffset": 1088356,
      "byteLength": 82260,
      "target": 34962,
      "byteStride": 12
    },
    {
      "buffer": 0,
      "byteOffset": 1170616,
      "byteLength": 82260,
      "target": 34962,
      "byteStride": 12
    },
    {
      "buffer": 0,
      "byteOffset": 1252876,
      "byteLength": 54840,
      "target": 34962,
      "byteStride": 8
    },
    {
      "buffer": 0,
      "byteOffset": 1307716,
      "byteLength": 13712,
      "target": 34963
    }
  ],
  "buffers": [
    {
      "byteLength": 1321428,
      "uri": "data:application/octet-stream;base64,"
    }
  ],
  "accessors": [
    {
      "bufferView": 0,
      "componentType": 5126,
      "count": 4497,
      "max": [
        -0.09171509742736816,
        1.1564580202102661,
        0.17760184407234192
      ],
      "min": [
        -0.8315128684043884,
        -0.17490699887275696,
        -0.3754008412361145
      ],
      "type": "VEC3"
    },
    {
      "bufferView": 1,
      "componentType": 5126,
      "count": 4497,
      "max": [
        0.9996600151062012,
        0.9981042742729187,
        0.9991782903671265
      ],
      "min": [
        -0.9998924732208252,
        -0.9983327984809875,
        -0.9995599985122681
      ],
      "type": "VEC3"
    },
    {
      "bufferView": 2,
      "componentType": 5126,
      "count": 4497,
      "max": [
        0.9825000166893005,
        0.9884999990463257
      ],
      "min": [
        0.019600000232458115,
        0.010099999606609344
      ],
      "type": "VEC2"
    },
    {
      "bufferView": 3,
      "componentType": 5123,
      "count": 4497,
      "max": [
        4496
      ],
      "min": [
        0
      ],
      "type": "SCALAR"
    },
    {
      "bufferView": 4,
      "componentType": 5126,
      "count": 12342,
      "max": [
        0.34413576126098633,
        0.9826030135154724,
        0.6147058010101318
      ],
      "min": [
        -0.30769646167755127,
        0.16946899890899658,
        -0.11197084933519363
      ],
      "type": "VEC3"
    },
    {
      "bufferView": 5,
      "componentType": 5126,
      "count": 12342,
      "max": [
        0.9998478889465332,
        0.9984793663024902,
        0.9995023608207703
      ],
      "min": [
        -0.9998213648796082,
        -0.9975281953811646,
        -0.9983511567115784
      ],
      "type": "VEC3"
    },
    {
      "bufferView": 6,
      "componentType": 5126,
      "count": 12342,
      "max": [
        0.9927999973297119,
        0.991599977016449
      ],
      "min": [
        0.007199999876320362,
        0.006599999964237213
      ],
      "type": "VEC2"
    },
    {
      "bufferView": 7,
      "componentType": 5123,
      "count": 12342,
      "max": [
        12341
      ],
      "min": [
        0
      ],
      "type": "SCALAR"
    },
    {
      "bufferView": 8,
      "componentType": 5126,
      "count": 5695,
      "max": [
        0.8030482530593872,
        1.1810870170593262,
        0.16711223125457764
      ],
      "min": [
        0.13969692587852478,
        -0.19469599425792694,
        -0.50831538438797
      ],
      "type": "VEC3"
    },
    {
      "bufferView": 9,
      "componentType": 5126,
      "count": 5695,
      "max": [
        0.9941694736480713,
        0.999482274055481,
        0.9981619119644165
      ],
      "min": [
        -0.9964108467102051,
        -0.9978949427604675,
        -0.9974919557571411
      ],
      "type": "VEC3"
    },
    {
      "bufferView": 10,
      "componentType": 5126,
      "count": 5695,
      "max": [
        0.9811999797821045,
        0.9894999861717224
      ],
      "min": [
        0.008999999612569809,
        0.010099999606609344
      ],
      "type": "VEC2"
    },
    {
      "bufferView": 11,
      "componentType": 5123,
      "count": 5697,
      "max": [
        5694
      ],
      "min": [
        0
      ],
      "type": "SCALAR"
    },
    {
      "bufferView": 12,
      "componentType": 5126,
      "count": 6924,
      "max": [
        0.23160365223884583,
        0.4254469871520996,
        0.5698350667953491
      ],
      "min": [
        -0.3817501962184906,
        -1.0097609758377075,
        -0.1763262152671814
      ],
      "type": "VEC3"
    },
    {
      "bufferView": 13,
      "componentType": 5126,
      "count": 6924,
      "max": [
        0.9999117851257324,
        0.9976114630699158,
        0.999039888381958
      ],
      "min": [
        -0.9997341632843018,
        -0.9981721043586731,
        -0.99977046251297
      ],
      "type": "VEC3"
    },
    {
      "bufferView": 14,
      "componentType": 5126,
      "count": 6924,
      "max": [
        0.9965000152587891,
        0.9926999807357788
      ],
      "min": [
        0.25609999895095825,
        0.004600000102072954
      ],
      "type": "VEC2"
    },
    {
      "bufferView": 15,
      "componentType": 5123,
      "count": 6924,
      "max": [
        6923
      ],
      "min": [
        0
      ],
      "type": "SCALAR"
    },
    {
      "bufferView": 16,
      "componentType": 5126,
      "count": 2052,
      "max": [
        0.23160365223884583,
        0.44932299852371216,
        0.4422880709171295
      ],
      "min": [
        -0.3817501962184906,
        0.07690799981355667,
        -0.045030951499938965
      ],
      "type": "VEC3"
    },
    {
      "bufferView": 17,
      "componentType": 5126,
      "count": 2052,
      "max": [
        0.9958913326263428,
        0.8975245356559753,
        0.9972805976867676
      ],
      "min": [
        -0.9959927201271057,
        -0.4578034281730652,
        -0.998184859752655
      ],
      "type": "VEC3"
    },
    {
      "bufferView": 18,
      "componentType": 5126,
      "count": 2052,
      "max": [
        0.2451999932527542,
        0.9926999807357788
      ],
      "min": [
        0.005499999970197678,
        0.007300000172108412
      ],
      "type": "VEC2"
    },
    {
      "bufferView": 19,
      "componentType": 5123,
      "count": 2052,
      "max": [
        2051
      ],
      "min": [
        0
      ],
      "type": "SCALAR"
    },
    {
      "bufferView": 20,
      "componentType": 5126,
      "count": 120,
      "max": [
        -0.018859218806028366,
        0.12591899931430817,
        0.2679729163646698
      ],
      "min": [
        -0.1837122142314911,
        -0.041432999074459076,
        0.08815886080265045
      ],
      "type": "VEC3"
    },
    {
      "bufferView": 21,
      "componentType": 5126,
      "count": 120,
      "max": [
        0.9992872476577759,
        0.16435642540454865,
        0.9931299686431885
      ],
      "min": [
        -0.9686076045036316,
        -0.20860998332500458,
        -0.9433147311210632
      ],
      "type": "VEC3"
    },
    {
      "bufferView": 22,
      "componentType": 5126,
      "count": 120,
      "max": [
        0.7628999948501587,
        0.7185999751091003
      ],
      "min": [
        0.5444999933242798,
        0.6373999714851379
      ],
      "type": "VEC2"
    },
    {
      "bufferView": 23,
      "componentType": 5121,
      "count": 120,
      "max": [
        119
      ],
      "min": [
        0
      ],
      "type": "SCALAR"
    },
    {
      "bufferView": 24,
      "componentType": 5126,
      "count": 120,
      "max": [
        0.16100263595581055,
        0.2081039994955063,
        0.44547808170318604
      ],
      "min": [
        0.008236536756157875,
        -0.013100000098347664,
        0.2273821383714676
      ],
      "type": "VEC3"
    },
    {
      "bufferView": 25,
      "componentType": 5126,
      "count": 120,
      "max": [
        0.9804661273956299,
        0.7800418138504028,
        0.6456707715988159
      ],
      "min": [
        -0.9998002648353577,
        -0.7421611547470093,
        -0.6689380407333374
      ],
      "type": "VEC3"
    },
    {
      "bufferView": 26,
      "componentType": 5126,
      "count": 120,
      "max": [
        0.9883000254631042,
        0.7185999751091003
      ],
      "min": [
        0.7699000239372253,
        0.6373999714851379
      ],
      "type": "VEC2"
    },
    {
      "bufferView": 27,
      "componentType": 5121,
      "count": 120,
      "max": [
        119
      ],
      "min": [
        0
      ],
      "type": "SCALAR"
    },
    {
      "bufferView": 28,
      "componentType": 5126,
      "count": 242,
      "max": [
        0.831512987613678,
        -1.0508220195770264,
        0.7849620580673218
      ],
      "min": [
        -0.738411009311676,
        -1.25,
        -0.7849619388580322
      ],
      "type": "VEC3"
    },
    {
      "bufferView": 29,
      "componentType": 5126,
      "count": 242,
      "max": [
        0.9967163801193237,
        1,
        0.9967158436775208
      ],
      "min": [
        -0.9967158436775208,
        -1,
        -0.9967158436775208
      ],
      "type": "VEC3"
    },
    {
      "bufferView": 30,
      "componentType": 5126,
      "count": 242,
      "max": [
        0.982699990272522,
        0.9692000150680542
      ],
      "min": [
        0.01889999955892563,
        0.028200000524520874
      ],
      "type": "VEC2"
    },
    {
      "bufferView": 31,
      "componentType": 5123,
      "count": 672,
      "max": [
        241
      ],
      "min": [
        0
      ],
      "type": "SCALAR"
    },
    {
      "bufferView": 32,
      "componentType": 5126,
      "count": 6855,
      "max": [
        0.22559671103954315,
        1.25,
        0.3307300806045532
      ],
      "min": [
        -0.11016818135976791,
        0.8394759893417358,
        0.017694054171442986
      ],
      "type": "VEC3"
    },
    {
      "bufferView": 33,
      "componentType": 5126,
      "count": 6855,
      "max": [
        0.9994784593582153,
        0.9993705749511719,
        0.9993565678596497
      ],
      "min": [
        -0.9984134435653687,
        -0.9778038263320923,
        -0.998335599899292
      ],
      "type": "VEC3"
    },
    {
      "bufferView": 34,
      "componentType": 5126,
      "count": 6855,
      "max": [
        0.9937000274658203,
        0.9872000217437744
      ],
      "min": [
        0.00419999985024333,
        0.012000000104308128
      ],
      "type": "VEC2"
    },
    {
      "bufferView": 35,
      "componentType": 5123,
      "count": 6855,
      "max": [
        6854
      ],
      "min": [
        0
      ],
      "type": "SCALAR"
    }
  ],
  "materials": [
    {
      "pbrMetallicRoughness": {
        "baseColorFactor": [
          0.698039,
          0.698039,
          0.698039,
          1
        ],
        "metallicFactor": 0.5,
        "roughnessFactor": 0.5,
        "baseColorTexture": {
          "index": 0
        }
      },
      "doubleSided": true,
      "name": "mat_0-AGRS_Hair01.jpg"
    },
    {
      "pbrMetallicRoughness": {
        "baseColorFactor": [
          0.698039,
          0.698039,
          0.698039,
          1
        ],
        "metallicFactor": 0.5,
        "roughnessFactor": 0.5,
        "baseColorTexture": {
          "index": 1
        }
      },
      "doubleSided": true,
      "name": "mat_1-AGRS_Body01.jpg"
    },
    {
      "pbrMetallicRoughness": {
        "baseColorFactor": [
          0.698039,
          0.698039,
          0.698039,
          1
        ],
        "metallicFactor": 0.5,
        "roughnessFactor": 0.5,
        "baseColorTexture": {
          "index": 2
        }
      },
      "doubleSided": true,
      "name": "mat_2-AGRS_Hair02.jpg"
    },
    {
      "pbrMetallicRoughness": {
        "baseColorFactor": [
          0.698039,
          0.698039,
          0.698039,
          1
        ],
        "metallicFactor": 0.5,
        "roughnessFactor": 0.5,
        "baseColorTexture": {
          "index": 3
        }
      },
      "doubleSided": true,
      "name": "mat_3-AGRS_Body02.jpg"
    },
    {
      "pbrMetallicRoughness": {
        "baseColorFactor": [
          0.698039,
          0.698039,
          0.698039,
          1
        ],
        "metallicFactor": 0.5,
        "roughnessFactor": 0.5,
        "baseColorTexture": {
          "index": 4
        }
      },
      "doubleSided": true,
      "name": "mat_4-AGRS_Body02.jpg"
    },
    {
      "pbrMetallicRoughness": {
        "baseColorFactor": [
          0.698039,
          0.698039,
          0.698039,
          1
        ],
        "metallicFactor": 0.5,
        "roughnessFactor": 0.5,
        "baseColorTexture": {
          "index": 5
        }
      },
      "doubleSided": true,
      "name": "mat_5-AGRS_Body02.jpg"
    },
    {
      "pbrMetallicRoughness": {
        "baseColorFactor": [
          0.698039,
          0.698039,
          0.698039,
          1
        ],
        "metallicFactor": 0.5,
        "roughnessFactor": 0.5,
        "baseColorTexture": {
          "index": 6
        }
      },
      "doubleSided": true,
      "name": "mat_6-AGRS_Body02.jpg"
    },
    {
      "pbrMetallicRoughness": {
        "baseColorFactor": [
          0.698039,
          0.698039,
          0.698039,
          1
        ],
        "metallicFactor": 0.5,
        "roughnessFactor": 0.5,
        "baseColorTexture": {
          "index": 7
        }
      },
      "doubleSided": true,
      "name": "mat_7-Base.jpg"
    },
    {
      "pbrMetallicRoughness": {
        "baseColorFactor": [
          0.698039,
          0.698039,
          0.698039,
          1
        ],
        "metallicFactor": 0.5,
        "roughnessFactor": 0.5,
        "baseColorTexture": {
          "index": 8
        }
      },
      "doubleSided": true,
      "name": "mat_8-AGRS_Head01.jpg"
    }
  ],
  "textures": [
    {
      "sampler": 0,
      "source": 0
    },
    {
      "sampler": 1,
      "source": 1
    },
    {
      "sampler": 2,
      "source": 2
    },
    {
      "sampler": 3,
      "source": 3
    },
    {
      "sampler": 4,
      "source": 4
    },
    {
      "sampler": 5,
      "source": 5
    },
    {
      "sampler": 6,
      "source": 6
    },
    {
      "sampler": 7,
      "source": 7
    },
    {
      "sampler": 8,
      "source": 8
    }
  ],
  "samplers": [
    {
      "magFilter": 9729,
      "minFilter": 9987,
      "wrapS": 10497,
      "wrapT": 10497
    },
    {
      "magFilter": 9729,
      "minFilter": 9987,
      "wrapS": 10497,
      "wrapT": 10497
    },
    {
      "magFilter": 9729,
      "minFilter": 9987,
      "wrapS": 10497,
      "wrapT": 10497
    },
    {
      "magFilter": 9729,
      "minFilter": 9987,
      "wrapS": 10497,
      "wrapT": 10497
    },
    {
      "magFilter": 9729,
      "minFilter": 9987,
      "wrapS": 10497,
      "wrapT": 10497
    },
    {
      "magFilter": 9729,
      "minFilter": 9987,
      "wrapS": 10497,
      "wrapT": 10497
    },
    {
      "magFilter": 9729,
      "minFilter": 9987,
      "wrapS": 10497,
      "wrapT": 10497
    },
    {
      "magFilter": 9729,
      "minFilter": 9987,
      "wrapS": 10497,
      "wrapT": 10497
    },
    {
      "magFilter": 9729,
      "minFilter": 9987,
      "wrapS": 10497,
      "wrapT": 10497
    }
  ],
  "images": [
    {
      "mimeType": "image/jpeg",
      "uri": "data:image/jpeg;base64,"
    },
    {
      "mimeType": "image/jpeg",
      "uri": "data:image/jpeg;base64,"
    },
    {
      "mimeType": "image/jpeg",
      "uri": "data:image/jpeg;base64,"
    },
    {
      "mimeType": "image/jpeg",
      "uri": "data:image/jpeg;base64,"
    },
    {
      "mimeType": "image/jpeg",
      "uri": "data:image/jpeg;base64,"
    },
    {
      "mimeType": "image/jpeg",
      "uri": "data:image/jpeg;base64,"
    },
    {
      "mimeType": "image/jpeg",
      "uri": "data:image/jpeg;base64,"
    },
    {
      "mimeType": "image/jpeg",
      "uri": "data:image/jpeg;base64,"
    },
    {
      "mimeType": "image/jpeg",
      "uri": "data:image/jpeg;base64,"
    }
  ],
  "meshes": [
    {
      "primitives": [
        {
          "mode": 4,
          "attributes": {
            "POSITION": 0,
            "NORMAL": 1,
            "TEXCOORD_0": 2
          },
          "indices": 3,
          "material": 0
        }
      ]
    },
    {
      "primitives": [
        {
          "mode": 4,
          "attributes": {
            "POSITION": 4,
            "NORMAL": 5,
            "TEXCOORD_0": 6
          },
          "indices": 7,
          "material": 1
        }
      ]
    },
    {
      "primitives": [
        {
          "mode": 4,
          "attributes": {
            "POSITION": 8,
            "NORMAL": 9,
            "TEXCOORD_0": 10
          },
          "indices": 11,
          "material": 2
        }
      ]
    },
    {
      "primitives": [
        {
          "mode": 4,
          "attributes": {
            "POSITION": 12,
            "NORMAL": 13,
            "TEXCOORD_0": 14
          },
          "indices": 15,
          "material": 3
        }
      ]
    },
    {
      "primitives": [
        {
          "mode": 4,
          "attributes": {
            "POSITION": 16,
            "NORMAL": 17,
            "TEXCOORD_0": 18
          },
          "indices": 19,
          "material": 4
        }
      ]
    },
    {
      "primitives": [
        {
          "mode": 4,
          "attributes": {
            "POSITION": 20,
            "NORMAL": 21,
            "TEXCOORD_0": 22
          },
          "indices": 23,
          "material": 5
        }
      ]
    },
    {
      "primitives": [
        {
          "mode": 4,
          "attributes": {
            "POSITION": 24,
            "NORMAL": 25,
            "TEXCOORD_0": 26
          },
          "indices": 27,
          "material": 6
        }
      ]
    },
    {
      "primitives": [
        {
          "mode": 4,
          "attributes": {
            "POSITION": 28,
            "NORMAL": 29,
            "TEXCOORD_0": 30
          },
          "indices": 31,
          "material": 7
        }
      ]
    },
    {
      "primitives": [
        {
          "mode": 4,
          "attributes": {
            "POSITION": 32,
            "NORMAL": 33,
            "TEXCOORD_0": 34
          },
          "indices": 35,
          "material": 8
        }
      ]
    }
  ]
}