{
  "asset": {
    "version": "2.0",
    "generator": "THREE.GLTFExporter"
  },
  "scenes": [
    {
      "name": "AuxScene",
      "nodes": [
        3
      ]
    }
  ],
  "scene": 0,
  "nodes": [
    {
      "name": "object_0",
      "mesh": 0
    },
    {
      "name": "object_1",
      "mesh": 1
    },
    {
      "name": "object_2",
      "mesh": 2
    },
    {
      "children": [
        0,
        1,
        2
      ]
    }
  ],
  "bufferViews": [
    {
      "buffer": 0,
      "byteOffset": 0,
      "byteLength": 221940,
      "target": 34962,
      "byteStride": 12
    },
    {
      "buffer": 0,
      "byteOffset": 221940,
      "byteLength": 221940,
      "target": 34962,
      "byteStride": 12
    },
    {
      "buffer": 0,
      "byteOffset": 443880,
      "byteLength": 147960,
      "target": 34962,
      "byteStride": 8
    },
    {
      "buffer": 0,
      "byteOffset": 591840,
      "byteLength": 235980,
      "target": 34962,
      "byteStride": 12
    },
    {
      "buffer": 0,
      "byteOffset": 827820,
      "byteLength": 235980,
      "target": 34962,
      "byteStride": 12
    },
    {
      "buffer": 0,
      "byteOffset": 1063800,
      "byteLength": 157320,
      "target": 34962,
      "byteStride": 8
    },
    {
      "buffer": 0,
      "byteOffset": 1221120,
      "byteLength": 14400,
      "target": 34962,
      "byteStride": 12
    },
    {
      "buffer": 0,
      "byteOffset": 1235520,
      "byteLength": 14400,
      "target": 34962,
      "byteStride": 12
    },
    {
      "buffer": 0,
      "byteOffset": 1249920,
      "byteLength": 9600,
      "target": 34962,
      "byteStride": 8
    }
  ],
  "buffers": [
    {
      "byteLength": 1259520,
      "uri": "data:application/octet-stream;base64,"
    }
  ],
  "accessors": [
    {
      "bufferView": 0,
      "componentType": 5126,
      "count": 18495,
      "max": [
        11.350497245788574,
        38.173587799072266,
        7.0714311599731445
      ],
      "min": [
        -10.313699722290039,
        -0.15757599472999573,
        -13.855999946594238
      ],
      "type": "VEC3"
    },
    {
      "bufferView": 1,
      "componentType": 5126,
      "count": 18495,
      "max": [
        0.9999790191650391,
        0.9986850023269653,
        0.9997609853744507
      ],
      "min": [
        -0.9997689723968506,
        -0.9999979734420776,
        -0.9999909996986389
      ],
      "type": "VEC3"
    },
    {
      "bufferView": 2,
      "componentType": 5126,
      "count": 18495,
      "max": [
        0.9956039786338806,
        0.9921860098838806
      ],
      "min": [
        0.006622999906539917,
        0.005867000203579664
      ],
      "type": "VEC2"
    },
    {
      "bufferView": 3,
      "componentType": 5126,
      "count": 19665,
      "max": [
        17.009489059448242,
        38.22355270385742,
        17.009489059448242
      ],
      "min": [
        -17.0093994140625,
        -1.1482499837875366,
        -17.0093994140625
      ],
      "type": "VEC3"
    },
    {
      "bufferView": 4,
      "componentType": 5126,
      "count": 19665,
      "max": [
        0.9997410178184509,
        0.9999979734420776,
        0.9999909996986389
      ],
      "min": [
        -0.9998840093612671,
        -0.9999979734420776,
        -0.9997609853744507
      ],
      "type": "VEC3"
    },
    {
      "bufferView": 5,
      "componentType": 5126,
      "count": 19665,
      "max": [
        0.6406289935112,
        0.6328679919242859
      ],
      "min": [
        0.6406289935112,
        0.6328679919242859
      ],
      "type": "VEC2"
    },
    {
      "bufferView": 6,
      "componentType": 5126,
      "count": 1200,
      "max": [
        16.950271606445312,
        -0.0000013430000080916216,
        16.950271606445312
      ],
      "min": [
        -16.950300216674805,
        -1.0882500410079956,
        -16.950300216674805
      ],
      "type": "VEC3"
    },
    {
      "bufferView": 7,
      "componentType": 5126,
      "count": 1200,
      "max": [
        0.9999979734420776,
        0.9999979734420776,
        1
      ],
      "min": [
        -0.9999979734420776,
        -0.9999979734420776,
        -1
      ],
      "type": "VEC3"
    },
    {
      "bufferView": 8,
      "componentType": 5126,
      "count": 1200,
      "max": [
        0.9897119998931885,
        0.9867420196533203
      ],
      "min": [
        0.013255000114440918,
        0.022292999550700188
      ],
      "type": "VEC2"
    }
  ],
  "materials": [
    {
      "pbrMetallicRoughness": {
        "metallicFactor": 0.5,
        "roughnessFactor": 0.5
      },
      "name": "object_0"
    },
    {
      "pbrMetallicRoughness": {
        "metallicFactor": 0.5,
        "roughnessFactor": 0.5
      },
      "name": "object_1"
    },
    {
      "pbrMetallicRoughness": {
        "metallicFactor": 0.5,
        "roughnessFactor": 0.5
      },
      "name": "object_2"
    }
  ],
  "meshes": [
    {
      "primitives": [
        {
          "mode": 4,
          "attributes": {
            "POSITION": 0,
            "NORMAL": 1,
            "TEXCOORD_0": 2
          },
          "material": 0
        }
      ]
    },
    {
      "primitives": [
        {
          "mode": 4,
          "attributes": {
            "POSITION": 3,
            "NORMAL": 4,
            "TEXCOORD_0": 5
          },
          "material": 1
        }
      ]
    },
    {
      "primitives": [
        {
          "mode": 4,
          "attributes": {
            "POSITION": 6,
            "NORMAL": 7,
            "TEXCOORD_0": 8
          },
          "material": 2
        }
      ]
    }
  ]
}